<?xml version="1.0" encoding="UTF-8"?>
<svg width="793.7" height="1122.5" version="1.1" viewBox="0 0 210 297" xmlns="http://www.w3.org/2000/svg" xmlns:xlink="http://www.w3.org/1999/xlink">
 <defs>
  <linearGradient id="linearGradient37287" x1="105" x2="105" y1="61.182" y2="229.86" gradientUnits="userSpaceOnUse">
   <stop stop-color="#11f4fa" offset=".080386"/>
   <stop stop-color="#2fd84b" offset=".5"/>
   <stop stop-color="#9500c4" offset=".91961"/>
  </linearGradient>
 </defs>
 <path d="m105 61.182-49.468 28.562v-0.0016l-23.571 13.609v84.338l49.47 28.562-1e-3 5.1e-4 23.57 13.607 56.084-32.379v-5.2e-4l16.957-9.7886v-84.34l-49.469-28.56 1e-3 -5.16e-4zm0 7.6383 10.341 5.9702-49.468 28.561v57.122l-10.341-5.9707v-57.12zm16.958 9.7896 49.468 28.56v11.941l-49.469-28.561-49.469 28.561v-11.941zm-1e-3 19.58 49.469 28.561v57.121l-10.341 5.9707v-57.121l-23.571-13.61v1e-3l-25.898-14.952zm-73.039 3.0096v57.123l49.468 28.561-10.341 5.9707-49.469-28.561v-57.123zm56.083 6.7794 32.513 18.771v37.542l-32.513 18.771-32.513-18.771v-37.543zm39.128 22.591 10.34 5.9697v57.123l-49.469 28.561-10.341-5.9707 49.47-28.563zm-6.6151 41.36v11.941l-49.469 28.561-49.469-28.561v-11.941l49.469 28.56 23.571-13.607-1e-3 -5.2e-4z" color="#000000" fill="url(#linearGradient37287)" style="-inkscape-stroke:none"/>
</svg>
